<?xml version="1.0" encoding="UTF-8" standalone="no"?>
<!-- Generator: Adobe Illustrator 16.0.0, SVG Export Plug-In . SVG Version: 6.00 Build 0)  -->

<svg
   xmlns:dc="http://purl.org/dc/elements/1.1/"
   xmlns:cc="http://creativecommons.org/ns#"
   xmlns:rdf="http://www.w3.org/1999/02/22-rdf-syntax-ns#"
   xmlns:svg="http://www.w3.org/2000/svg"
   xmlns="http://www.w3.org/2000/svg"
   xmlns:sodipodi="http://sodipodi.sourceforge.net/DTD/sodipodi-0.dtd"
   xmlns:inkscape="http://www.inkscape.org/namespaces/inkscape"
   version="1.1"
   id="HackerRank"
   x="0px"
   y="0px"
   width="615"
   height="615"
   viewBox="0 0 615 615"
   enable-background="new 0 0 1189 887"
   xml:space="preserve"
   inkscape:version="0.91 r13725"
   sodipodi:docname="hr_clean.svg"><metadata
     id="metadata3647"><rdf:RDF><cc:Work
         rdf:about=""><dc:format>image/svg+xml</dc:format><dc:type
           rdf:resource="http://purl.org/dc/dcmitype/StillImage" /><dc:title></dc:title></cc:Work></rdf:RDF></metadata><defs
     id="defs3645" /><sodipodi:namedview
     pagecolor="#ffffff"
     bordercolor="#666666"
     borderopacity="1"
     objecttolerance="10"
     gridtolerance="10"
     guidetolerance="10"
     inkscape:pageopacity="0"
     inkscape:pageshadow="2"
     inkscape:window-width="1367"
     inkscape:window-height="812"
     id="namedview3643"
     showgrid="false"
     inkscape:zoom="1.0428932"
     inkscape:cx="276.01574"
     inkscape:cy="398.38153"
     inkscape:window-x="35"
     inkscape:window-y="47"
     inkscape:window-maximized="0"
     inkscape:current-layer="HackerRank"
     fit-margin-top="0"
     fit-margin-left="0"
     fit-margin-right="0"
     fit-margin-bottom="0" /><g
     id="Hexagon"
     transform="translate(-287.00007,-13.041129)"><g
       id="Hexagon_1_"><g
         id="g3597"><linearGradient
           id="SVGID_1_"
           gradientUnits="userSpaceOnUse"
           x1="676.75153"
           y1="290.14651"
           x2="676.75153"
           y2="16.5"><stop
             offset="0"
             style="stop-color:#25A559"
             id="stop3600" /><stop
             offset="1"
             style="stop-color:#30CE68"
             id="stop3602" /></linearGradient><linearGradient
           id="SVGID_2_"
           gradientUnits="userSpaceOnUse"
           x1="623.13129"
           y1="416.16409"
           x2="623.13129"
           y2="66.401398"><stop
             offset="0"
             style="stop-color:#25A559"
             id="stop3607" /><stop
             offset="1"
             style="stop-color:#30CE68"
             id="stop3609" /></linearGradient><linearGradient
           id="SVGID_3_"
           gradientUnits="userSpaceOnUse"
           x1="594.45697"
           y1="511.7988"
           x2="594.45697"
           y2="131.95309"><stop
             offset="0"
             style="stop-color:#25A559"
             id="stop3614" /><stop
             offset="1"
             style="stop-color:#30CE68"
             id="stop3616" /></linearGradient><linearGradient
           id="SVGID_4_"
           gradientUnits="userSpaceOnUse"
           x1="565.33063"
           y1="578.44922"
           x2="565.33063"
           y2="228.03909"><stop
             offset="0"
             style="stop-color:#25A559"
             id="stop3621" /><stop
             offset="1"
             style="stop-color:#30CE68"
             id="stop3623" /></linearGradient><linearGradient
           id="SVGID_5_"
           gradientUnits="userSpaceOnUse"
           x1="510.5405"
           y1="626.5"
           x2="510.5405"
           y2="356.75101"><stop
             offset="0"
             style="stop-color:#25A559"
             id="stop3628" /><stop
             offset="1"
             style="stop-color:#30CE68"
             id="stop3630" /></linearGradient><g
           id="g3649"
           style="stroke:#000000;stroke-opacity:1"><path
             style="fill:none;stroke:#ffffff;stroke-width:5;stroke-miterlimit:4;stroke-dasharray:none;stroke-opacity:1"
             d="m 594.48633,16.5 c -14.651,0 -61.36121,22.150391 -111.53321,49.900391 -38.01099,21.022 -77.97892,45.235729 -107.54492,65.552729 -23.216,15.938 -40.02809,29.45079 -44.37109,37.05079 -4.43594,7.75965 -7.71695,29.96097 -9.86328,59.03515 l -0.002,0 c -0.003,0.0422 -0.007,0.0867 -0.01,0.12891 -0.002,0.0282 -0.004,0.0538 -0.006,0.082 -2.71301,36.8132 -3.59596,84.59743 -2.63477,128.50195 1.22,55.576 5.38163,104.83014 12.51563,117.24414 17.249,30.036 228.99022,152.50391 263.44922,152.50391 14.314,0 59.22622,-21.17378 108.07422,-48.05078 38.589,-21.233 79.58108,-46.00453 109.95507,-66.76953 l -0.004,-0.002 c 23.73644,-16.22812 41.007,-30.0092 45.42773,-37.68164 4.396,-7.614 7.65832,-29.31403 9.82032,-57.83203 2.708,-35.907 3.64301,-82.63258 2.79101,-126.01758 -1.113,-57.23 -5.30628,-108.56157 -12.61328,-121.14257 -6.163,-10.626 -37.21484,-33.15227 -76.08984,-57.69727 L 678.19336,51.472656 C 639.37036,31.112656 606.37733,16.5 594.48633,16.5 Z"
             id="path3604"
             inkscape:connector-curvature="0" /></g></g></g><g
       id="H_1_"><g
         id="g3637"><path
           d="m 646.273,345.368 0,105.574 -17.819,0 c -3.621,0 -6.551,2.935 -6.551,6.545 0,2.37 1.256,4.44 3.138,5.591 l 40.05,38.391 c 1.197,1.564 3.574,2.753 5.697,2.753 2.168,0 4.086,-1.128 5.275,-2.753 l 42.669,-38.397 c 1.873,-1.151 3.123,-3.221 3.123,-5.584 0,-3.61 -2.935,-6.545 -6.55,-6.545 l -17.881,0 -0.153,-255.099 c 0,-3.613 -2.868,-6.547 -6.483,-6.547 l -37.928,0 c -3.62,0 -6.585,2.934 -6.585,6.547 l 0,98.478 -103.554,-0.014 0,-102.25 17.821,0 c 3.619,0 6.55,-2.935 6.55,-6.547 0,-2.37 -1.256,-4.438 -3.137,-5.59 l -40.05,-38.389 c -1.198,-1.565 -3.575,-2.755 -5.698,-2.755 -2.167,0 -4.086,1.13 -5.274,2.755 l -42.671,38.396 c -1.873,1.15 -3.122,3.219 -3.122,5.582 0,3.612 2.935,6.547 6.551,6.547 l 17.881,0 0.154,255.099 c 0,3.613 2.868,6.547 6.483,6.547 l 37.928,0 c 3.62,0 6.585,-2.934 6.585,-6.547 l 0,-101.788 103.551,0 z"
           id="path3639"
           inkscape:connector-curvature="0"
           style="fill:#ffffff" /></g></g></g></svg>