<?xml version="1.0" encoding="utf-8"?>
<!-- Generator: Adobe Illustrator 19.0.1, SVG Export Plug-In . SVG Version: 6.00 Build 0)  -->
<!DOCTYPE svg PUBLIC "-//W3C//DTD SVG 1.1//EN" "http://www.w3.org/Graphics/SVG/1.1/DTD/svg11.dtd">
<svg version="1.1" id="Layer_1" xmlns="http://www.w3.org/2000/svg" xmlns:xlink="http://www.w3.org/1999/xlink" x="0px" y="0px"
	 viewBox="0 0 800 800" enable-background="new 0 0 800 800" xml:space="preserve">
<path fill="#F9F9F9" d="M439.5,335.4c52.8-67.9,121.2-86.6,201.1-74.1c75.9,11.9,121.3,55.8,136.9,131.1
	c6.4,31.1,10.1,62.5,10.1,94.3c0.1,92.8-0.3,185.7,0.6,278.5c0.1,16.5-3.6,22.3-21.1,21.7c-40-1.4-80-1.2-120-0.1
	c-16.2,0.5-20.1-4.9-20-20.4c0.7-81.5,0.3-163,0.4-244.6c0-21.2-1.7-42.3-6.8-62.8c-9.6-38.7-31.8-57.5-69.2-60.5
	c-43.6-3.4-75.7,13.5-91.3,48.4c-9.4,21-12.7,43.4-12.8,66.2c-0.3,83.8-0.9,167.6-0.1,251.3c0.2,18.2-5.2,23-22.8,22.4
	c-39.2-1.3-78.5-0.9-117.7-0.1c-14,0.3-19.7-2.8-19.6-18.4c0.6-160,0.5-320,0.1-480.1c0-13.1,2.9-18.8,17.4-18.4
	c39.2,0.9,78.5,1,117.7,0c14.9-0.4,17.9,5.7,17.2,18.7C438.9,304.1,439.5,319.8,439.5,335.4z"/>
<path fill="#F9F9F9" d="M185.4,528.3c0,77.7-0.9,155.5,0.6,233.2c0.4,21.7-6.7,26.2-26.6,25.5c-38.4-1.5-77-0.9-115.4-0.2
	c-13,0.2-18.6-2.4-18.5-17.2c0.5-160.7,0.5-321.5,0-482.2c0-14.5,5-17.7,18.3-17.5c40.7,0.7,81.5,1.1,122.2-0.1
	c16.6-0.5,19.8,5.8,19.7,20.8C185.1,369.9,185.4,449.1,185.4,528.3z"/>
<path fill="#F9F9F9" d="M106.5,14.6c52.5,0.1,93.2,41.1,92.7,93.2c-0.5,51.5-43.6,94-94.1,92.9C55,199.4,13.5,157.5,13,107.4
	C12.5,56.4,54.8,14.4,106.5,14.6z"/>
</svg>
