<?xml version="1.0" encoding="UTF-8" standalone="no"?>
<svg
   xmlns:dc="http://purl.org/dc/elements/1.1/"
   xmlns:cc="http://creativecommons.org/ns#"
   xmlns:rdf="http://www.w3.org/1999/02/22-rdf-syntax-ns#"
   xmlns:svg="http://www.w3.org/2000/svg"
   xmlns="http://www.w3.org/2000/svg"
   xmlns:sodipodi="http://sodipodi.sourceforge.net/DTD/sodipodi-0.dtd"
   xmlns:inkscape="http://www.inkscape.org/namespaces/inkscape"
   width="80"
   height="80"
   version="1.1"
   id="svg2"
   inkscape:version="0.91 r13725"
   sodipodi:docname="quora.svg">
  <metadata
     id="metadata18">
    <rdf:RDF>
      <cc:Work
         rdf:about="">
        <dc:format>image/svg+xml</dc:format>
        <dc:type
           rdf:resource="http://purl.org/dc/dcmitype/StillImage" />
        <dc:title></dc:title>
      </cc:Work>
    </rdf:RDF>
  </metadata>
  <defs
     id="defs16" />
  <sodipodi:namedview
     pagecolor="#ffffff"
     bordercolor="#666666"
     borderopacity="1"
     objecttolerance="10"
     gridtolerance="10"
     guidetolerance="10"
     inkscape:pageopacity="0"
     inkscape:pageshadow="2"
     inkscape:window-width="1369"
     inkscape:window-height="764"
     id="namedview14"
     showgrid="false"
     fit-margin-top="0"
     fit-margin-left="0"
     fit-margin-right="0"
     fit-margin-bottom="0"
     inkscape:zoom="1.461354"
     inkscape:cx="140.04858"
     inkscape:cy="13.864097"
     inkscape:window-x="0"
     inkscape:window-y="0"
     inkscape:window-maximized="0"
     inkscape:current-layer="g6" />
  <desc
     id="desc4">Logo of Quora</desc>
  <g
     id="g6"
     transform="translate(-26.724831,-24.829178)">
    <path
       id="path54"
       d="m 71.208495,86.72343 c -1.53811,0.31149 -3.10382,0.38658 -4.6104,0.31944 -8.02971,-0.36684 -17.63295,-3.54163 -17.63295,-25.17363 0,-21.62022 10.06074,-27.85159 18.09043,-27.48473 8.01787,0.36275 17.35302,5.85656 17.35302,27.48473 0,9.80042 -1.99164,15.96078 -4.93378,19.74288 -0.03941,0 -0.07106,-0.01156 -0.07106,-0.01156 -6.68089,-8.86982 -15.3376,-7.20168 -17.41208,-6.36568 0,0 0.26027,1.97988 0.80848,5.59637 4.58278,0.21712 6.8544,2.69382 8.43989,5.82526 -0.0158,0.03152 -0.03156,0.06693 -0.03156,0.06693 m 13.05019,4.66552 c 0,0 0.0197,-0.02743 0.02364,-0.05127 9.74921,-5.68687 15.992395,-16.82834 16.272415,-29.7525 0.43382,-19.79415 -13.957305,-35.26196 -33.735775,-35.77855 -18.76882,-0.48913 -33.64899,17.22261 -33.92901,35.77855 -0.29578,19.69955 13.79952,33.28643 33.72,34.01194 2.68177,0.10254 5.34393,-0.0828 7.868,-0.57964 0,0 0.0394,0.01179 0.06704,0.01973 6.79132,12.41918 16.91522,9.83585 19.53392,8.96422 0,0 -0.35889,-2.14935 -0.97414,-6.14064 -4.87457,-0.28786 -7.04765,-2.82358 -8.84608,-6.47182"
       inkscape:connector-curvature="0"
       style="fill:#ffffff;fill-rule:nonzero" />
  </g>
</svg>
