<?xml version="1.0" encoding="UTF-8" standalone="no"?>
<!-- Created with Inkscape (http://www.inkscape.org/) -->

<svg
   xmlns:dc="http://purl.org/dc/elements/1.1/"
   xmlns:cc="http://creativecommons.org/ns#"
   xmlns:rdf="http://www.w3.org/1999/02/22-rdf-syntax-ns#"
   xmlns:svg="http://www.w3.org/2000/svg"
   xmlns="http://www.w3.org/2000/svg"
   xmlns:sodipodi="http://sodipodi.sourceforge.net/DTD/sodipodi-0.dtd"
   xmlns:inkscape="http://www.inkscape.org/namespaces/inkscape"
   id="svg3422"
   version="1.1"
   inkscape:version="0.91 r13725"
   width="158"
   height="158"
   viewBox="0 0 158 158"
   sodipodi:docname="so.svg">
  <metadata
     id="metadata3428">
    <rdf:RDF>
      <cc:Work
         rdf:about="">
        <dc:format>image/svg+xml</dc:format>
        <dc:type
           rdf:resource="http://purl.org/dc/dcmitype/StillImage" />
        <dc:title></dc:title>
      </cc:Work>
    </rdf:RDF>
  </metadata>
  <defs
     id="defs3426" />
  <sodipodi:namedview
     pagecolor="#ffffff"
     bordercolor="#666666"
     borderopacity="1"
     objecttolerance="10"
     gridtolerance="10"
     guidetolerance="10"
     inkscape:pageopacity="0"
     inkscape:pageshadow="2"
     inkscape:window-width="1336"
     inkscape:window-height="846"
     id="namedview3424"
     showgrid="false"
     inkscape:zoom="4"
     inkscape:cx="34.245897"
     inkscape:cy="57.718439"
     inkscape:window-x="0"
     inkscape:window-y="0"
     inkscape:window-maximized="0"
     inkscape:current-layer="svg3422" />
  <path
     style="fill:#ffffff"
     d="m -228.5,22 0,-17 4.5,0 4.5,0 0,12.5 0,12.5 30,0 30,0 0,-12.5 0,-12.5 4.5,0 4.5,0 0,17 0,17 -39,0 -39,0 z m 17,-4.5 0,-4.5 22,0 22,0 0,4.5 0,4.5 -22,0 -22,0 z m 1.48158,-15.685092 C -210.92726,0.90607295 -208.33523,-6 -207.08528,-6 c 1.62213,0 39.94767,8.099761 40.43456,8.545484 0.60303,0.552031 -0.99106,8.458926 -1.68718,8.368676 -14.47263,-3.711582 -26.14489,-5.296093 -41.68052,-9.099252 z m 25.22999,-10.735421 c -10.33363,-4.852653 -19.02931,-9.063896 -19.32373,-9.358316 -0.42104,-0.421039 1.95268,-6.146258 3.11525,-7.513753 0.13681,-0.160921 9.06169,3.82958 19.83306,8.867779 l 19.58432,9.160362 -1.98056,3.882221 c -1.0893,2.135221 -2.08391,3.86028095 -2.21023,3.83346695 -0.12633,-0.02681 -8.68447,-4.01910595 -19.01811,-8.87175995 z m 7.53843,-14.677428 c -8.9375,-7.459463 -16.25,-13.892334 -16.25,-14.295269 0,-0.402934 1.24948,-1.929689 2.77663,-3.392787 l 2.77663,-2.66018 16.22337,13.474221 c 8.92285,7.410822 16.20915,13.811212 16.19177,14.223089 -0.0316,0.749069 -4.60812,6.264517 -5.17043,6.231227 -0.16389,-0.0097 -7.61047,-6.120837 -16.54797,-13.580301 z M -166.31902,-35.254315 -179.2828,-52.5 l 3.1414,-2.723099 c 1.72777,-1.497705 3.3664,-2.724072 3.6414,-2.725261 0.275,-0.0012 4.85553,5.949206 10.17896,13.223099 5.32343,7.273894 11.06071,15.084521 12.74951,17.35695 l 3.07054,4.13169 -3.42713,2.613996 -3.42712,2.613996 z"
     id="path3462"
     inkscape:connector-curvature="0"
     sodipodi:nodetypes="cccccccccccccccccccccccccccssccsscscscsssscsccsccscsscccc" />
  <g
     id="g3623"
     transform="translate(3.2500001,-3)"
     style="fill:#ffffff">
    <path
       sodipodi:nodetypes="cccccccccccccccccccccccccc"
       inkscape:connector-curvature="0"
       id="path3573"
       d="m 34,109 0,-17 4.5,0 4.5,0 0,12.5 0,12.5 30,0 30,0 0,-12.5 0,-12.5 4.5,0 4.5,0 0,17 0,17 -39,0 -39,0 z m 17,-4.5 0,-4.5 22,0 22,0 0,4.5 0,4.5 -22,0 -22,0 z"
       style="fill:#ffffff" />
    <path
       sodipodi:nodetypes="ccccccccc"
       inkscape:connector-curvature="0"
       id="path3573-4"
       d="m 71.614294,45.897769 2.884548,-3.453894 16.885706,14.102231 16.885702,14.102231 -2.88454,3.453894 -2.88455,3.453895 L 85.615452,63.453894 68.729747,49.351663 Z"
       style="fill:#ffffff" />
    <path
       sodipodi:nodetypes="ccccccccc"
       inkscape:connector-curvature="0"
       id="path3573-4-8"
       d="m 59.318853,64.436065 1.905123,-4.076826 19.931147,9.313936 19.931147,9.313935 -1.905123,4.076825 -1.905123,4.076826 L 77.344877,77.826825 57.41373,68.51289 Z"
       style="fill:#ffffff" />
    <path
       sodipodi:nodetypes="ccccccccc"
       inkscape:connector-curvature="0"
       id="path3573-4-06"
       d="m 53.238312,84.890524 0.942848,-4.40012 21.511687,4.609478 21.511688,4.609476 -0.942847,4.400118 -0.942848,4.400121 -21.511688,-4.609479 -21.511687,-4.609476 z"
       style="fill:#ffffff" />
    <path
       sodipodi:nodetypes="ccccccccc"
       inkscape:connector-curvature="0"
       id="path3573-4-7"
       d="m 86.416627,31.500824 3.579377,-2.727281 13.333376,17.499176 13.33337,17.499176 -3.57938,2.727281 L 109.504,69.226457 96.170623,51.727281 82.83725,34.228105 Z"
       style="fill:#ffffff" />
  </g>
</svg>
